<svg xmlns="http://www.w3.org/2000/svg" version="1.1" xmlns:xlink="http://www.w3.org/1999/xlink" xmlns:svgjs="http://svgjs.com/svgjs" width="1440" height="560" preserveAspectRatio="none" viewBox="0 0 1440 560"><g mask="url(&quot;#SvgjsMask1029&quot;)" fill="none"><rect width="1440" height="560" x="0" y="0" fill="rgba(60, 125, 233, 1)"></rect><path d="M492.366,239.825C515.958,241.236,542.252,238.617,555.078,218.766C568.724,197.647,564.669,169.833,551.385,148.484C538.845,128.331,516.082,118.965,492.366,117.979C466.418,116.9,436.563,120.365,424.189,143.197C412.12,165.467,426.823,191.272,441.426,211.969C453.384,228.917,471.661,238.587,492.366,239.825" fill="rgba(255, 255, 255, 0.1)" class="triangle-float1"></path><path d="M1233.602,741.831C1279.665,739.647,1323.229,717.864,1345.494,677.48C1367.063,638.358,1358.175,592.472,1337.892,552.668C1315.034,507.81,1283.918,459.645,1233.602,457.894C1181.342,456.076,1141.856,499.528,1115.937,544.945C1090.296,589.874,1075.152,644.634,1101.69,689.039C1127.731,732.612,1182.897,744.235,1233.602,741.831" fill="rgba(255, 255, 255, 0.1)" class="triangle-float3"></path><path d="M279.325,308.768C298.85,309.127,319.368,301.971,328.37,284.641C336.898,268.224,328.515,249.241,318.234,233.861C309.301,220.498,295.353,212.485,279.325,211.267C260.408,209.83,238.878,211.09,228.623,227.052C217.802,243.895,222.755,265.881,233.31,282.892C243.254,298.919,260.467,308.421,279.325,308.768" fill="rgba(255, 255, 255, 0.1)" class="triangle-float1"></path><path d="M1254.746,164.949C1289.068,164.238,1321.784,148.986,1339.426,119.537C1357.56,89.267,1358.703,51.372,1341.111,20.784C1323.47,-9.891,1290.111,-28.933,1254.746,-27.705C1221.263,-26.542,1195.484,-2.247,1178.183,26.443C1160.139,56.365,1146.855,92.597,1163.759,123.178C1181.063,154.482,1218.986,165.69,1254.746,164.949" fill="rgba(255, 255, 255, 0.1)" class="triangle-float2"></path><path d="M943.864,271.436C962.023,271.076,978.08,260.668,987.302,245.02C996.68,229.107,999.364,209.224,989.866,193.382C980.591,177.91,961.903,172.439,943.864,172.564C926.083,172.687,908.395,178.944,898.952,194.011C888.931,210,887.868,230.481,897.336,246.804C906.773,263.073,925.06,271.809,943.864,271.436" fill="rgba(255, 255, 255, 0.1)" class="triangle-float3"></path><path d="M284.057,337.319C305.541,338.577,329.954,335.787,340.843,317.224C351.812,298.526,342.767,275.539,330.963,257.356C320.375,241.046,303.498,229.363,284.057,229.748C265.214,230.121,249.576,242.768,240.257,259.15C231.054,275.327,228.63,294.949,237.728,311.186C247.017,327.764,265.086,336.208,284.057,337.319" fill="rgba(255, 255, 255, 0.1)" class="triangle-float2"></path><path d="M639.404,479.156C674.593,479.431,702.215,451.559,718.392,420.308C733.197,391.707,733.425,357.595,716.518,330.183C700.4,304.05,670.107,291.94,639.404,292.241C609.28,292.537,580.484,305.909,564.87,331.672C548.677,358.391,548.433,391.207,562.525,419.091C578.246,450.199,604.55,478.884,639.404,479.156" fill="rgba(255, 255, 255, 0.1)" class="triangle-float1"></path><path d="M188.134,374.678C242.855,373.984,279.878,323.909,304.449,275.01C326.159,231.805,330.296,181.611,306.219,139.679C282.045,97.578,236.68,72.856,188.134,72.436C138.822,72.009,91.551,95.153,66.455,137.604C40.924,180.791,43.682,233.396,66.59,278.029C91.923,327.387,132.659,375.382,188.134,374.678" fill="rgba(255, 255, 255, 0.1)" class="triangle-float2"></path><path d="M1154.239,546.012C1194.101,545.686,1216.687,505.262,1236.584,470.72C1256.43,436.267,1278.528,397.283,1260.248,361.974C1240.974,324.745,1196.161,311.606,1154.239,311.666C1112.441,311.726,1068.277,325.318,1048.759,362.279C1030.116,397.585,1049.651,437.459,1069.529,472.085C1089.528,506.92,1114.072,546.34,1154.239,546.012" fill="rgba(255, 255, 255, 0.1)" class="triangle-float1"></path><path d="M161.988,344.285C178.553,343.126,193.733,335.684,202.573,321.627C212.073,306.521,215.796,287.718,207.494,271.922C198.655,255.104,180.974,245.095,161.988,244.404C141.662,243.664,121.059,251.089,110.357,268.385C99.133,286.524,98.209,310.453,110.207,328.09C121.109,344.116,142.652,345.638,161.988,344.285" fill="rgba(255, 255, 255, 0.1)" class="triangle-float2"></path><path d="M482.207,165.031C504.413,163.595,526.518,157.343,538.642,138.684C551.906,118.272,555.815,91.71,543.489,70.719C531.29,49.944,506.298,42.32,482.207,42.576C458.633,42.827,436.365,52.482,423.143,72C407.955,94.42,397.018,124.043,411.532,146.905C425.504,168.911,456.194,166.713,482.207,165.031" fill="rgba(255, 255, 255, 0.1)" class="triangle-float3"></path><path d="M1366.351,567.437C1412.76,567.571,1455.412,541.23,1477.686,500.515C1499.122,461.332,1493.867,414.186,1471.263,375.665C1448.959,337.656,1410.412,311.689,1366.351,310.784C1320.692,309.846,1276.696,331.74,1253.697,371.195C1230.541,410.919,1233.233,459.999,1256.125,499.876C1279.121,539.934,1320.162,567.304,1366.351,567.437" fill="rgba(255, 255, 255, 0.1)" class="triangle-float1"></path></g><defs><mask id="SvgjsMask1029"><rect width="1440" height="560" fill="#ffffff"></rect></mask><style>
            @keyframes float1 {
                0%{transform: translate(0, 0)}
                50%{transform: translate(-10px, 0)}
                100%{transform: translate(0, 0)}
            }

            .triangle-float1 {
                animation: float1 5s infinite;
            }

            @keyframes float2 {
                0%{transform: translate(0, 0)}
                50%{transform: translate(-5px, -5px)}
                100%{transform: translate(0, 0)}
            }

            .triangle-float2 {
                animation: float2 4s infinite;
            }

            @keyframes float3 {
                0%{transform: translate(0, 0)}
                50%{transform: translate(0, -10px)}
                100%{transform: translate(0, 0)}
            }

            .triangle-float3 {
                animation: float3 6s infinite;
            }
        </style></defs></svg>